<mxfile host="Electron" modified="2024-06-30T08:01:43.118Z" agent="Mozilla/5.0 (Windows NT 10.0; Win64; x64) AppleWebKit/537.36 (KHTML, like Gecko) draw.io/21.2.8 Chrome/112.0.5615.165 Electron/24.2.0 Safari/537.36" etag="daOhUvYOTE8cB-l5CH25" version="21.2.8" type="device">
  <diagram name="Page-1" id="pM3B6rKhwkpQ3Ba0mc0x">
    <mxGraphModel dx="2400" dy="-202" grid="0" gridSize="10" guides="1" tooltips="1" connect="1" arrows="1" fold="1" page="0" pageScale="1" pageWidth="827" pageHeight="1169" math="0" shadow="0">
      <root>
        <mxCell id="0" />
        <mxCell id="1" parent="0" />
        <mxCell id="8va0OqabrR-9lV-UEvKi-1" value="User" style="swimlane;fontStyle=0;childLayout=stackLayout;horizontal=1;startSize=30;horizontalStack=0;resizeParent=1;resizeParentMax=0;resizeLast=0;collapsible=1;marginBottom=0;whiteSpace=wrap;html=1;" parent="1" vertex="1">
          <mxGeometry x="266" y="1218" width="140" height="180" as="geometry" />
        </mxCell>
        <mxCell id="8va0OqabrR-9lV-UEvKi-2" value="Id" style="text;strokeColor=none;fillColor=none;align=left;verticalAlign=middle;spacingLeft=4;spacingRight=4;overflow=hidden;points=[[0,0.5],[1,0.5]];portConstraint=eastwest;rotatable=0;whiteSpace=wrap;html=1;" parent="8va0OqabrR-9lV-UEvKi-1" vertex="1">
          <mxGeometry y="30" width="140" height="30" as="geometry" />
        </mxCell>
        <mxCell id="8va0OqabrR-9lV-UEvKi-3" value="Name" style="text;strokeColor=none;fillColor=none;align=left;verticalAlign=middle;spacingLeft=4;spacingRight=4;overflow=hidden;points=[[0,0.5],[1,0.5]];portConstraint=eastwest;rotatable=0;whiteSpace=wrap;html=1;" parent="8va0OqabrR-9lV-UEvKi-1" vertex="1">
          <mxGeometry y="60" width="140" height="30" as="geometry" />
        </mxCell>
        <mxCell id="8va0OqabrR-9lV-UEvKi-54" value="EnrollmentDate" style="text;strokeColor=none;fillColor=none;align=left;verticalAlign=middle;spacingLeft=4;spacingRight=4;overflow=hidden;points=[[0,0.5],[1,0.5]];portConstraint=eastwest;rotatable=0;whiteSpace=wrap;html=1;" parent="8va0OqabrR-9lV-UEvKi-1" vertex="1">
          <mxGeometry y="90" width="140" height="30" as="geometry" />
        </mxCell>
        <mxCell id="8va0OqabrR-9lV-UEvKi-4" value="PositionId" style="text;strokeColor=none;fillColor=none;align=left;verticalAlign=middle;spacingLeft=4;spacingRight=4;overflow=hidden;points=[[0,0.5],[1,0.5]];portConstraint=eastwest;rotatable=0;whiteSpace=wrap;html=1;" parent="8va0OqabrR-9lV-UEvKi-1" vertex="1">
          <mxGeometry y="120" width="140" height="30" as="geometry" />
        </mxCell>
        <mxCell id="8va0OqabrR-9lV-UEvKi-5" value="DepartmentId" style="text;strokeColor=none;fillColor=none;align=left;verticalAlign=middle;spacingLeft=4;spacingRight=4;overflow=hidden;points=[[0,0.5],[1,0.5]];portConstraint=eastwest;rotatable=0;whiteSpace=wrap;html=1;" parent="8va0OqabrR-9lV-UEvKi-1" vertex="1">
          <mxGeometry y="150" width="140" height="30" as="geometry" />
        </mxCell>
        <mxCell id="8va0OqabrR-9lV-UEvKi-7" style="edgeStyle=orthogonalEdgeStyle;rounded=0;orthogonalLoop=1;jettySize=auto;html=1;entryX=1;entryY=0.5;entryDx=0;entryDy=0;endArrow=ERmany;endFill=0;exitX=0;exitY=0.5;exitDx=0;exitDy=0;" parent="1" source="8va0OqabrR-9lV-UEvKi-9" target="8va0OqabrR-9lV-UEvKi-4" edge="1">
          <mxGeometry relative="1" as="geometry" />
        </mxCell>
        <mxCell id="8va0OqabrR-9lV-UEvKi-8" value="Position" style="swimlane;fontStyle=0;childLayout=stackLayout;horizontal=1;startSize=30;horizontalStack=0;resizeParent=1;resizeParentMax=0;resizeLast=0;collapsible=1;marginBottom=0;whiteSpace=wrap;html=1;" parent="1" vertex="1">
          <mxGeometry x="551" y="1223" width="140" height="90" as="geometry" />
        </mxCell>
        <mxCell id="8va0OqabrR-9lV-UEvKi-9" value="Id" style="text;strokeColor=none;fillColor=none;align=left;verticalAlign=middle;spacingLeft=4;spacingRight=4;overflow=hidden;points=[[0,0.5],[1,0.5]];portConstraint=eastwest;rotatable=0;whiteSpace=wrap;html=1;" parent="8va0OqabrR-9lV-UEvKi-8" vertex="1">
          <mxGeometry y="30" width="140" height="30" as="geometry" />
        </mxCell>
        <mxCell id="8va0OqabrR-9lV-UEvKi-10" value="Name" style="text;strokeColor=none;fillColor=none;align=left;verticalAlign=middle;spacingLeft=4;spacingRight=4;overflow=hidden;points=[[0,0.5],[1,0.5]];portConstraint=eastwest;rotatable=0;whiteSpace=wrap;html=1;" parent="8va0OqabrR-9lV-UEvKi-8" vertex="1">
          <mxGeometry y="60" width="140" height="30" as="geometry" />
        </mxCell>
        <mxCell id="8va0OqabrR-9lV-UEvKi-11" value="Department" style="swimlane;fontStyle=0;childLayout=stackLayout;horizontal=1;startSize=30;horizontalStack=0;resizeParent=1;resizeParentMax=0;resizeLast=0;collapsible=1;marginBottom=0;whiteSpace=wrap;html=1;" parent="1" vertex="1">
          <mxGeometry x="3" y="1276" width="140" height="90" as="geometry" />
        </mxCell>
        <mxCell id="8va0OqabrR-9lV-UEvKi-12" value="Id" style="text;strokeColor=none;fillColor=none;align=left;verticalAlign=middle;spacingLeft=4;spacingRight=4;overflow=hidden;points=[[0,0.5],[1,0.5]];portConstraint=eastwest;rotatable=0;whiteSpace=wrap;html=1;" parent="8va0OqabrR-9lV-UEvKi-11" vertex="1">
          <mxGeometry y="30" width="140" height="30" as="geometry" />
        </mxCell>
        <mxCell id="8va0OqabrR-9lV-UEvKi-13" value="Name" style="text;strokeColor=none;fillColor=none;align=left;verticalAlign=middle;spacingLeft=4;spacingRight=4;overflow=hidden;points=[[0,0.5],[1,0.5]];portConstraint=eastwest;rotatable=0;whiteSpace=wrap;html=1;" parent="8va0OqabrR-9lV-UEvKi-11" vertex="1">
          <mxGeometry y="60" width="140" height="30" as="geometry" />
        </mxCell>
        <mxCell id="8va0OqabrR-9lV-UEvKi-14" style="edgeStyle=orthogonalEdgeStyle;rounded=0;orthogonalLoop=1;jettySize=auto;html=1;endArrow=ERmany;endFill=0;" parent="1" source="8va0OqabrR-9lV-UEvKi-12" target="8va0OqabrR-9lV-UEvKi-5" edge="1">
          <mxGeometry relative="1" as="geometry" />
        </mxCell>
        <mxCell id="8va0OqabrR-9lV-UEvKi-15" value="Product" style="swimlane;fontStyle=0;childLayout=stackLayout;horizontal=1;startSize=30;horizontalStack=0;resizeParent=1;resizeParentMax=0;resizeLast=0;collapsible=1;marginBottom=0;whiteSpace=wrap;html=1;" parent="1" vertex="1">
          <mxGeometry x="-226" y="1242" width="140" height="150" as="geometry" />
        </mxCell>
        <mxCell id="8va0OqabrR-9lV-UEvKi-16" value="Id" style="text;strokeColor=none;fillColor=none;align=left;verticalAlign=middle;spacingLeft=4;spacingRight=4;overflow=hidden;points=[[0,0.5],[1,0.5]];portConstraint=eastwest;rotatable=0;whiteSpace=wrap;html=1;" parent="8va0OqabrR-9lV-UEvKi-15" vertex="1">
          <mxGeometry y="30" width="140" height="30" as="geometry" />
        </mxCell>
        <mxCell id="8va0OqabrR-9lV-UEvKi-17" value="Name" style="text;strokeColor=none;fillColor=none;align=left;verticalAlign=middle;spacingLeft=4;spacingRight=4;overflow=hidden;points=[[0,0.5],[1,0.5]];portConstraint=eastwest;rotatable=0;whiteSpace=wrap;html=1;" parent="8va0OqabrR-9lV-UEvKi-15" vertex="1">
          <mxGeometry y="60" width="140" height="30" as="geometry" />
        </mxCell>
        <mxCell id="8va0OqabrR-9lV-UEvKi-18" value="Timestamp" style="text;strokeColor=none;fillColor=none;align=left;verticalAlign=middle;spacingLeft=4;spacingRight=4;overflow=hidden;points=[[0,0.5],[1,0.5]];portConstraint=eastwest;rotatable=0;whiteSpace=wrap;html=1;" parent="8va0OqabrR-9lV-UEvKi-15" vertex="1">
          <mxGeometry y="90" width="140" height="30" as="geometry" />
        </mxCell>
        <mxCell id="8va0OqabrR-9lV-UEvKi-31" value="DepartmentId" style="text;strokeColor=none;fillColor=none;align=left;verticalAlign=middle;spacingLeft=4;spacingRight=4;overflow=hidden;points=[[0,0.5],[1,0.5]];portConstraint=eastwest;rotatable=0;whiteSpace=wrap;html=1;" parent="8va0OqabrR-9lV-UEvKi-15" vertex="1">
          <mxGeometry y="120" width="140" height="30" as="geometry" />
        </mxCell>
        <mxCell id="8va0OqabrR-9lV-UEvKi-32" style="edgeStyle=orthogonalEdgeStyle;rounded=0;orthogonalLoop=1;jettySize=auto;html=1;entryX=1;entryY=0.5;entryDx=0;entryDy=0;endArrow=ERmany;endFill=0;" parent="1" source="8va0OqabrR-9lV-UEvKi-12" target="8va0OqabrR-9lV-UEvKi-31" edge="1">
          <mxGeometry relative="1" as="geometry" />
        </mxCell>
        <mxCell id="kOBW0-teSmIYV9malTf_-9" value="Products" style="text;html=1;strokeColor=none;fillColor=none;align=center;verticalAlign=middle;whiteSpace=wrap;rounded=0;fontStyle=1;fontSize=18;" parent="1" vertex="1">
          <mxGeometry x="335" y="2260" width="90" height="30" as="geometry" />
        </mxCell>
        <mxCell id="kOBW0-teSmIYV9malTf_-10" value="&lt;font color=&quot;#ffff00&quot;&gt;2012.06.04&lt;/font&gt;&lt;span style=&quot;background-color: initial;&quot;&gt;&amp;nbsp;Cloud services and solutions&lt;/span&gt;&lt;br&gt;&lt;div&gt;&lt;font color=&quot;#ffff00&quot;&gt;2016.04.13&lt;/font&gt; Big Data Analysis Tools&lt;/div&gt;&lt;div&gt;&lt;font color=&quot;#ffff00&quot;&gt;2017.09.27&lt;/font&gt; Test automation systems&lt;/div&gt;&lt;font color=&quot;#ffff00&quot;&gt;2019.12.01&lt;/font&gt;&lt;span style=&quot;background-color: initial;&quot;&gt;&amp;nbsp;Internal libraries and frameworks&lt;br&gt;&lt;/span&gt;" style="text;html=1;strokeColor=none;fillColor=none;align=left;verticalAlign=middle;whiteSpace=wrap;rounded=0;" parent="1" vertex="1">
          <mxGeometry x="115" y="2289" width="246" height="79" as="geometry" />
        </mxCell>
        <mxCell id="kOBW0-teSmIYV9malTf_-11" value="&lt;div&gt;&lt;font color=&quot;#ffff00&quot;&gt;2015.11.02&lt;/font&gt; Research in Quantum Computing&lt;/div&gt;&lt;div&gt;&lt;font color=&quot;#ffff00&quot;&gt;2018.08.15&lt;/font&gt; Development of new methods of encryption&lt;/div&gt;&lt;div&gt;&lt;font color=&quot;#ffff00&quot;&gt;2022.05.03&lt;/font&gt; Creation of automation systems for production&lt;/div&gt;&lt;div&gt;&lt;font color=&quot;#ffff00&quot;&gt;2024.03.10&lt;/font&gt; Research in genetics and bioinformatics&lt;/div&gt;" style="text;html=1;strokeColor=none;fillColor=none;align=left;verticalAlign=middle;whiteSpace=wrap;rounded=0;" parent="1" vertex="1">
          <mxGeometry x="391" y="2291" width="314" height="79" as="geometry" />
        </mxCell>
        <mxCell id="kOBW0-teSmIYV9malTf_-12" value="" style="rounded=0;whiteSpace=wrap;html=1;fillColor=#0000FF;strokeColor=none;opacity=10;" parent="1" vertex="1">
          <mxGeometry x="104" y="2212" width="279" height="282" as="geometry" />
        </mxCell>
        <mxCell id="kOBW0-teSmIYV9malTf_-13" value="" style="rounded=0;whiteSpace=wrap;html=1;fillColor=#FF0000;strokeColor=none;opacity=10;" parent="1" vertex="1">
          <mxGeometry x="383" y="2210" width="331" height="283" as="geometry" />
        </mxCell>
        <mxCell id="kOBW0-teSmIYV9malTf_-14" value="IT" style="text;html=1;strokeColor=none;fillColor=none;align=center;verticalAlign=middle;whiteSpace=wrap;rounded=0;fontSize=20;fontStyle=1" parent="1" vertex="1">
          <mxGeometry x="184.5" y="2212" width="115" height="30" as="geometry" />
        </mxCell>
        <mxCell id="kOBW0-teSmIYV9malTf_-15" value="R&amp;amp;D" style="text;html=1;strokeColor=none;fillColor=none;align=center;verticalAlign=middle;whiteSpace=wrap;rounded=0;fontSize=20;fontStyle=1" parent="1" vertex="1">
          <mxGeometry x="492.5" y="2212" width="115" height="30" as="geometry" />
        </mxCell>
        <mxCell id="kOBW0-teSmIYV9malTf_-16" value="Users" style="text;html=1;strokeColor=none;fillColor=none;align=center;verticalAlign=middle;whiteSpace=wrap;rounded=0;fontStyle=1;fontSize=18;" parent="1" vertex="1">
          <mxGeometry x="335" y="2364" width="90" height="30" as="geometry" />
        </mxCell>
        <mxCell id="kOBW0-teSmIYV9malTf_-17" value="&lt;span style=&quot;background-color: initial;&quot;&gt;&lt;font color=&quot;#ffff00&quot;&gt;2012.05.08&lt;/font&gt;&lt;font color=&quot;#ffffff&quot;&gt; Bob&amp;nbsp; - &lt;/font&gt;&lt;font color=&quot;#ff3399&quot;&gt;Sales Manager&lt;/font&gt;&lt;br&gt;&lt;font color=&quot;#ffff00&quot;&gt;2017.02.20&lt;/font&gt; Alice - &lt;font color=&quot;#ff3399&quot;&gt;Customer Support&lt;/font&gt;&lt;br&gt;&lt;font color=&quot;#ffff00&quot;&gt;2022.12.20&lt;/font&gt; Sam - &lt;font color=&quot;#ff3399&quot;&gt;Customer Support&lt;/font&gt;&lt;br&gt;&lt;/span&gt;" style="text;html=1;strokeColor=none;fillColor=none;align=left;verticalAlign=middle;whiteSpace=wrap;rounded=0;" parent="1" vertex="1">
          <mxGeometry x="115" y="2416" width="246" height="79" as="geometry" />
        </mxCell>
        <mxCell id="kOBW0-teSmIYV9malTf_-18" value="&lt;span style=&quot;background-color: initial;&quot;&gt;&lt;font color=&quot;#ffff00&quot;&gt;2013.01.07&lt;/font&gt;&lt;font color=&quot;#ffffff&quot;&gt; Jack - &lt;/font&gt;&lt;font color=&quot;#ff3399&quot;&gt;Sales Manager&lt;/font&gt;&lt;br&gt;&lt;font color=&quot;#ffff00&quot;&gt;2017.07.12&lt;/font&gt; Fred - &lt;font color=&quot;#ff3399&quot;&gt;Customer Support&lt;/font&gt;&lt;br&gt;&lt;font color=&quot;#ffff00&quot;&gt;2024.01.23&lt;/font&gt; John - &lt;font color=&quot;#ff3399&quot;&gt;Customer Support&lt;/font&gt;&lt;br&gt;&lt;/span&gt;" style="text;html=1;strokeColor=none;fillColor=none;align=left;verticalAlign=middle;whiteSpace=wrap;rounded=0;" parent="1" vertex="1">
          <mxGeometry x="393" y="2420" width="246" height="79" as="geometry" />
        </mxCell>
        <mxCell id="kOBW0-teSmIYV9malTf_-19" value="&lt;span style=&quot;background-color: initial;&quot;&gt;&lt;font color=&quot;#ffff00&quot;&gt;2010.10.02&lt;/font&gt;&lt;font color=&quot;#ffffff&quot;&gt; Tom -&amp;nbsp;&lt;/font&gt;&lt;font color=&quot;#ff3399&quot;&gt;President&lt;/font&gt;&lt;br&gt;&lt;/span&gt;" style="text;html=1;strokeColor=none;fillColor=none;align=left;verticalAlign=middle;whiteSpace=wrap;rounded=0;" parent="1" vertex="1">
          <mxGeometry x="307" y="2389" width="158.25" height="37" as="geometry" />
        </mxCell>
        <mxCell id="kOBW0-teSmIYV9malTf_-20" value="Departments" style="text;html=1;strokeColor=none;fillColor=none;align=center;verticalAlign=middle;whiteSpace=wrap;rounded=0;fontStyle=1;fontSize=18;" parent="1" vertex="1">
          <mxGeometry x="335" y="2205" width="90" height="30" as="geometry" />
        </mxCell>
        <mxCell id="kOBW0-teSmIYV9malTf_-21" value="" style="endArrow=none;html=1;rounded=0;" parent="1" edge="1">
          <mxGeometry width="50" height="50" relative="1" as="geometry">
            <mxPoint x="104" y="2261" as="sourcePoint" />
            <mxPoint x="712" y="2262" as="targetPoint" />
          </mxGeometry>
        </mxCell>
        <mxCell id="kOBW0-teSmIYV9malTf_-22" value="" style="endArrow=none;html=1;rounded=0;" parent="1" edge="1">
          <mxGeometry width="50" height="50" relative="1" as="geometry">
            <mxPoint x="104" y="2365" as="sourcePoint" />
            <mxPoint x="712" y="2366" as="targetPoint" />
          </mxGeometry>
        </mxCell>
        <mxCell id="kOBW0-teSmIYV9malTf_-23" value="Authorization rules" style="text;html=1;strokeColor=none;fillColor=none;align=center;verticalAlign=middle;whiteSpace=wrap;rounded=0;fontStyle=1;fontSize=24;" parent="1" vertex="1">
          <mxGeometry x="-289.5" y="2184" width="250" height="28.5" as="geometry" />
        </mxCell>
        <mxCell id="kOBW0-teSmIYV9malTf_-24" value="&lt;font color=&quot;#ff3399&quot;&gt;President &lt;/font&gt;has access to all products" style="text;html=1;strokeColor=none;fillColor=none;align=left;verticalAlign=middle;whiteSpace=wrap;rounded=0;" parent="1" vertex="1">
          <mxGeometry x="-281" y="2246.75" width="252" height="29" as="geometry" />
        </mxCell>
        <mxCell id="kOBW0-teSmIYV9malTf_-26" value="&lt;div style=&quot;&quot;&gt;&lt;font style=&quot;background-color: initial;&quot; color=&quot;#ff3399&quot;&gt;Sales manager&lt;/font&gt;&lt;span style=&quot;background-color: initial;&quot;&gt; has access to all products&amp;nbsp;&lt;/span&gt;&lt;/div&gt;&lt;div style=&quot;&quot;&gt;&lt;font style=&quot;background-color: initial;&quot; color=&quot;#4d9900&quot;&gt;in his department&lt;/font&gt;&lt;/div&gt;" style="text;html=1;strokeColor=none;fillColor=none;align=left;verticalAlign=middle;whiteSpace=wrap;rounded=0;" parent="1" vertex="1">
          <mxGeometry x="-281" y="2302.75" width="249" height="32" as="geometry" />
        </mxCell>
        <mxCell id="kOBW0-teSmIYV9malTf_-27" value="salesManager.Department == product.Department" style="text;html=1;strokeColor=none;fillColor=none;align=left;verticalAlign=middle;whiteSpace=wrap;rounded=0;fontSize=9;fontColor=#009999;" parent="1" vertex="1">
          <mxGeometry x="-252" y="2334.75" width="213" height="30" as="geometry" />
        </mxCell>
        <mxCell id="kOBW0-teSmIYV9malTf_-28" value="&lt;div style=&quot;&quot;&gt;&lt;font style=&quot;background-color: initial;&quot; color=&quot;#ff3399&quot;&gt;Customer Support&lt;/font&gt;&lt;span style=&quot;background-color: initial;&quot;&gt;&amp;nbsp;has access to all products&amp;nbsp;&lt;/span&gt;&lt;/div&gt;&lt;div style=&quot;&quot;&gt;&lt;font style=&quot;background-color: initial;&quot; color=&quot;#4d9900&quot;&gt;in his department&lt;/font&gt;&lt;span style=&quot;background-color: initial;&quot;&gt; that&amp;nbsp;&lt;/span&gt;&lt;/div&gt;&lt;div style=&quot;&quot;&gt;&lt;font style=&quot;background-color: initial;&quot; color=&quot;#ff8000&quot;&gt;were created after being hired&lt;/font&gt;&lt;/div&gt;" style="text;html=1;strokeColor=none;fillColor=none;align=left;verticalAlign=middle;whiteSpace=wrap;rounded=0;" parent="1" vertex="1">
          <mxGeometry x="-281" y="2398.75" width="251" height="30" as="geometry" />
        </mxCell>
        <mxCell id="kOBW0-teSmIYV9malTf_-29" value="customerSupport.Department == product.Department &amp;amp;&amp;amp; customerSupport.EnrollmentDate &amp;lt; product.Timestamp" style="text;html=1;strokeColor=none;fillColor=none;align=left;verticalAlign=middle;whiteSpace=wrap;rounded=0;fontSize=9;fontColor=#009999;" parent="1" vertex="1">
          <mxGeometry x="-252" y="2443.75" width="242" height="30" as="geometry" />
        </mxCell>
        <mxCell id="kOBW0-teSmIYV9malTf_-31" value="1" style="ellipse;whiteSpace=wrap;html=1;aspect=fixed;fontStyle=1" parent="1" vertex="1">
          <mxGeometry x="-317.5" y="2248.75" width="25" height="25" as="geometry" />
        </mxCell>
        <mxCell id="kOBW0-teSmIYV9malTf_-32" value="2" style="ellipse;whiteSpace=wrap;html=1;aspect=fixed;fontStyle=1" parent="1" vertex="1">
          <mxGeometry x="-317.5" y="2306.25" width="25" height="25" as="geometry" />
        </mxCell>
        <mxCell id="kOBW0-teSmIYV9malTf_-33" value="3" style="ellipse;whiteSpace=wrap;html=1;aspect=fixed;fontStyle=1" parent="1" vertex="1">
          <mxGeometry x="-317.5" y="2401.25" width="25" height="25" as="geometry" />
        </mxCell>
        <mxCell id="kOBW0-teSmIYV9malTf_-30" value="" style="rounded=0;whiteSpace=wrap;html=1;fillColor=#FFFFFF;strokeColor=none;opacity=10;" parent="1" vertex="1">
          <mxGeometry x="-327" y="2177.25" width="330" height="303.5" as="geometry" />
        </mxCell>
        <mxCell id="v-1R4sRItWENGQ7z9l9D-1" value="Project test data" style="text;html=1;strokeColor=none;fillColor=none;align=center;verticalAlign=middle;whiteSpace=wrap;rounded=0;fontStyle=1;fontSize=24;" vertex="1" parent="1">
          <mxGeometry x="278.5" y="2168.25" width="203" height="30" as="geometry" />
        </mxCell>
        <mxCell id="v-1R4sRItWENGQ7z9l9D-2" value="Tom (8 products)&lt;br&gt;&lt;br&gt;Bob&amp;nbsp; (4 products)&lt;br&gt;Alice (2 products)&lt;br&gt;Sam (0 products)&lt;br&gt;&lt;br&gt;Jack (4 products)&lt;br&gt;Fred (3 products)&lt;br&gt;John (1 product)" style="text;html=1;strokeColor=none;fillColor=none;align=left;verticalAlign=middle;whiteSpace=wrap;rounded=0;" vertex="1" parent="1">
          <mxGeometry x="10" y="2700" width="108" height="158" as="geometry" />
        </mxCell>
        <mxCell id="v-1R4sRItWENGQ7z9l9D-3" value="" style="rounded=0;whiteSpace=wrap;html=1;fillColor=#0000FF;strokeColor=none;opacity=10;" vertex="1" parent="1">
          <mxGeometry x="3" y="2739" width="111" height="57" as="geometry" />
        </mxCell>
        <mxCell id="v-1R4sRItWENGQ7z9l9D-4" value="" style="rounded=0;whiteSpace=wrap;html=1;fillColor=#FF0000;strokeColor=none;opacity=10;" vertex="1" parent="1">
          <mxGeometry x="3" y="2796" width="111" height="55" as="geometry" />
        </mxCell>
      </root>
    </mxGraphModel>
  </diagram>
</mxfile>
